<?xml version="1.0" standalone="no"?>
<!DOCTYPE svg PUBLIC "-//W3C//DTD SVG 20010904//EN"
 "http://www.w3.org/TR/2001/REC-SVG-20010904/DTD/svg10.dtd">
<svg version="1.0" xmlns="http://www.w3.org/2000/svg"
 width="70.000000pt" height="70.000000pt" viewBox="0 0 70.000000 70.000000"
 preserveAspectRatio="xMidYMid meet">
<metadata>
Created by potrace 1.11, written by Peter Selinger 2001-2013
</metadata>
<g transform="translate(0.000000,70.000000) scale(0.100000,-0.100000)"
fill="#000000" stroke="none">
<path d="M222 645 c-17 -8 -33 -11 -36 -8 -3 4 -6 1 -6 -5 0 -7 -6 -12 -14
-12 -22 0 -102 -85 -126 -134 -28 -58 -36 -138 -19 -196 7 -25 12 -48 11 -52
-1 -5 1 -8 6 -8 4 0 13 -13 20 -29 16 -37 98 -121 117 -121 8 0 15 -5 15 -11
0 -5 5 -7 10 -4 5 3 16 3 23 -2 6 -4 21 -9 32 -10 11 -2 32 -5 47 -7 16 -2 31
0 34 5 3 6 11 5 20 -2 9 -7 14 -8 14 -1 0 6 9 9 20 7 11 -2 20 1 20 6 0 6 4 8
9 4 5 -3 16 2 25 10 8 9 18 15 22 13 11 -3 113 86 113 100 1 6 6 12 11 12 6 0
10 6 10 14 0 8 3 16 8 18 11 5 60 110 64 138 1 14 10 31 18 38 11 10 12 12 1
6 -11 -5 -13 -3 -7 11 3 10 9 49 12 86 5 59 4 69 -15 88 -12 12 -21 18 -21 15
0 -4 -6 -2 -12 3 -7 5 -37 11 -65 12 -57 3 -55 6 -56 -66 0 -18 -4 -33 -7 -33
-4 0 -7 -10 -6 -22 1 -13 -2 -39 -6 -58 -5 -19 -10 -43 -13 -52 -8 -33 -74
-123 -103 -140 -60 -36 -118 -27 -164 25 -26 28 -34 51 -29 87 8 67 61 110
132 106 35 -1 56 -10 89 -36 25 -19 41 -30 37 -23 -4 6 -2 13 5 15 14 5 18 24
23 102 3 62 -13 96 -47 96 -9 0 -20 5 -24 11 -3 6 -15 9 -25 6 -11 -3 -16 -1
-13 4 8 14 -118 9 -154 -6z"/>
<path d="M682 313 c9 -32 -112 -203 -143 -203 -5 0 -9 -6 -9 -13 0 -10 21 -13
83 -12 l82 0 3 118 c2 75 -1 117 -8 117 -5 0 -9 -3 -8 -7z"/>
</g>
</svg>
